# xmcd
#
# Track frame offsets: 
#        150
#        13817
#        28669
#        49990
#        67099
#        83804
#        100911
#        134270
#        153240
#        173166
#        187636
#        204114
#        217953
#
# Disc length: 3150 seconds
#
# Revision: 1
# Processed by: cddbd v1.5.2PL0 Copyright (c) Steve Scherf et al.
# Submitted via: ExactAudioCopyFreeDBPlugin 1.0
#
DISCID=a60c4c0d
DTITLE=Alan Jackson - Thirty Miles West
DYEAR=2012
DGENRE=Country
TTITLE0=Gonna Come Back as A Country Song
TTITLE1=You Go Your Way
TTITLE2=Everything But The Wings
TTITLE3=Talk Is Cheap
TTITLE4=So You Don't Have To Love Me Anymore
TTITLE5=Look Her In The Eye And Lie
TTITLE6=Dixie Highway (feat. Zac Brown)
TTITLE7=She Don't Get High
TTITLE8=Her Life's A Song
TTITLE9=Nothin' Fancy
TTITLE10=Long Way To Go
TTITLE11=Life Keeps Bringing Me Down
TTITLE12=When I Saw You Leaving (For Nicey)
EXTD=
EXTT0=
EXTT1=
EXTT2=
EXTT3=
EXTT4=
EXTT5=
EXTT6=
EXTT7=
EXTT8=
EXTT9=
EXTT10=
EXTT11=
EXTT12=
PLAYORDER=
